{"title":"Fortress 2012 BRRip XviD Ac3 Feel-Free","uid":6980692,"size":1043099968,"categoryP":"video","categoryS":"movies","magnet":"?xt=urn:btih:29bc28a1736ada5249532bbf2aaf7bc0cb1034ee&amp;dn=Fortress+2012+BRRip+XviD+Ac3+Feel-Free&amp;tr=udp%3A%2F%2Ftracker.openbittorrent.com%3A80&amp;tr=udp%3A%2F%2Fopen.demonii.com%3A1337&amp;tr=udp%3A%2F%2Ftracker.coppersurfer.tk%3A6969&amp;tr=udp%3A%2F%2Fexodus.desync.com%3A6969","seeders":0,"leechers":1,"uploader":"MScope40","files":-1,"time":1327393893,"description":".........................................\n.                                       .\n.          pitic Presents               .\n.                                       .\n.........................................\n\nGenre:Action\nLanguage:English\nIMDb:http://www.imdb.com/title/tt1558575/\nSource:720p.BluRay.x264-HD4U Thanks!\n\nFormat : AVI\nFormat/Info : Audio Video Interleave\nFile size : 993 MiB\nDuration : 1h 32mn\nOverall bit rate : 1 495 Kbps\n\nVideo\nID : 0\nFormat : MPEG-4 Visual\nFormat profile : Advanced Simple@L5\nFormat settings, BVOP : 1\nFormat settings, QPel : No\nFormat settings, GMC : No warppoints\nFormat settings, Matrix : Default (H.263)\nCodec ID : XVID\nCodec ID/Hint : XviD\nDuration : 1h 32mn\nBit rate : 1 262 Kbps\nWidth : 640 pixels\nHeight : 272 pixels\nDisplay aspect ratio : 2.35:1\nFrame rate : 23.976 fps\nColor space : YUV\nChroma subsampling : 4:2:0\nBit depth : 8 bits\nScan type : Progressive\nCompression mode : Lossy\nBits/(Pixel*Frame) : 0.302\nStream size : 838 MiB (84%)\nWriting library : XviD 1.2.1 (UTC 2008-12-04)\n\nAudio\nID : 1\nFormat : AC-3\nFormat/Info : Audio Coding 3\nMode extension : CM (complete main)\nCodec ID : 2000\nDuration : 1h 32mn\nBit rate mode : Constant\nBit rate : 224 Kbps\nChannel(s) : 2 channels\nChannel positions : Front: L R\nSampling rate : 48.0 KHz\nBit depth : 16 bits\nCompression mode : Lossy\nStream size : 149 MiB (15%)\nAlignment : Aligned on interleaves\nInterleave, duration : 42 ms (1.00 video frame)\nInterleave, preload duration : 512 ms\n\n\nScreens\n\n[img]http://img3.imageshack.us/img3/7478/vlcsnap2012012406h45m23.png[/img]\n\n[img]http://img854.imageshack.us/img854/285/vlcsnap2012012406h44m47.png[/img]\n\n[img]http://img189.imageshack.us/img189/1813/vlcsnap2012012406h45m09.png[/img]\n\n[img]http://img210.imageshack.us/img210/3328/vlcsnap2012012406h44m29.png[/img]\n","torrent":{"xt":"urn:btih:29bc28a1736ada5249532bbf2aaf7bc0cb1034ee","amp;dn":"Fortress+2012+BRRip+XviD+Ac3+Feel-Free","amp;tr":["udp%3A%2F%2Ftracker.openbittorrent.com%3A80","udp%3A%2F%2Fopen.demonii.com%3A1337","udp%3A%2F%2Ftracker.coppersurfer.tk%3A6969","udp%3A%2F%2Fexodus.desync.com%3A6969"],"infoHash":"29bc28a1736ada5249532bbf2aaf7bc0cb1034ee","infoHashBuffer":{"type":"Buffer","data":[41,188,40,161,115,106,218,82,73,83,43,191,42,175,123,192,203,16,52,238]},"announce":[],"urlList":[]}}